# xmcd
#
# Track frame offsets:
#	150
#	9511
#	28079
#	43152
#	57689
#	70332
#	89680
#
# Disc length: 1350 seconds
# Revision: 2
# Processed by: cddbd v1.5.2PL0 Copyright (c) Steve Scherf et al.
# Submitted via: dBpowerAMP V12.0
#
DISCID=63054407
DTITLE=George Canyon - Home For Christmas
DYEAR=2005
DGENRE=Christmas
TTITLE0=Rudolph The Red-Nosed Reindeer
TTITLE1=Blue Christmas
TTITLE2=Away In A Manger
TTITLE3=Frosty The Snow Man
TTITLE4=What Child Is This
TTITLE5=Silent Night
TTITLE6=Santa's On His Way
EXTD=
EXTT0=
EXTT1=
EXTT2=
EXTT3=
EXTT4=
EXTT5=
EXTT6=
PLAYORDER=
